<?xml version="1.0" encoding="utf-8"?>
<!-- Generator: Adobe Illustrator 20.0.0, SVG Export Plug-In . SVG Version: 6.00 Build 0)  -->
<svg version="1.1" id="Layer_1" xmlns="http://www.w3.org/2000/svg" xmlns:xlink="http://www.w3.org/1999/xlink" x="0px" y="0px"
	 width="600px" height="200px" viewBox="0 0 600 200" style="enable-background:new 0 0 600 200;" xml:space="preserve">
<style type="text/css">
	.st0{fill:#888989;}
	.st1{fill:#265C29;}
</style>
<g>
	<path class="st0" d="M45.1,154l-0.8,0.9l1.4-0.9c-0.1,0-0.2,0-0.3,0C45.3,154,45.2,154,45.1,154z M63.5,73.3l1.3-0.6l-0.3-0.8
		l-1.7-1.5L61.9,70c-0.3,3-0.6,6.2-1,9.7c-0.4,4.1-0.9,8.3-1.3,12.5c-0.4,4.2-0.9,8.4-1.4,12.4c0,0.1,0,0.2,0,0.3l0.5,2.9l0.2-0.2
		l0.7-1.3l0.6-1l1.1-0.3l0.2-0.1l0.6-0.7l0.5-2.3l0.3-1.3L64,100l1.7-0.8c0.3-2.7,0.7-5.4,1.1-8c0.3-1.8,0.5-3.7,0.8-5.6
		c0.2-1.9,0.4-3.8,0.6-5.7c0.8,1.5,1.5,2.8,2,4c0.5,1.2,1.1,2.3,1.5,3.4c0.3,0.7,0.7,1.5,1,2.3l0-0.1l0.5-0.5l2.3-2.4l0.7-1.7
		L76,83.9l-1.2-1l-0.1,0l0,0l-1.3-1.2l-1-0.2l-0.8-0.2L71,80.7l-1.3-1.4L68.4,80l-1.2-2.6c-0.2-0.4-0.6-0.9-1.1-1.4L63.5,73.3z
		 M92.5,36c-0.1-0.7-0.1-1.3,0-1.9c0.2-1.6,1.2-2.9,2.7-3.7c0.3-0.2,0.7-0.3,1-0.3c-0.2-1.1-0.1-2.4,0.8-3.6v-0.7
		c-1.3,0.4-3,1-4.4,1.7l-2.3,8.6l1.7-0.7L92.5,36z M42.3,123.1L42.3,123.1l0.1,0.2l0,0C42.3,123.2,42.3,123.2,42.3,123.1z
		 M66.6,131.8c0.2,0,0.4,0,0.6,0c-0.1-0.1-0.3-0.3-0.4-0.4C66.8,131.5,66.7,131.6,66.6,131.8z M55,143.8c-0.8,1.5-1.6,2.9-2.5,4.2
		c-0.9,1.4-1.8,2.6-2.6,3.5l9.3-5.6c-1.2-0.9-2.3-1.9-3.3-2.9L55,143.8z M141.1,140.6l10.2,13.1l-6.8-16
		C143.4,138.8,142.3,139.8,141.1,140.6z M120.2,25.8c-0.3,0.2-0.7,0.3-1.3,0.5c-2.6,0.8-5.5,1.9-7.7,3c-2,1-3.1,1.8-3.8,2.3l0.8,2.5
		c1.3-0.5,2.7-0.9,4-1.3c0.4-0.1,0.8-0.2,1.1-0.2c0.8,0,1.6,0.3,2.3,0.8c1.4-0.5,3-0.8,4.7-1c1.3-0.1,2.6-0.2,3.9-0.2
		c0.8,0,1.7-0.1,2.5-0.1l13.3-0.9c-5.6-3.5-11.7-6.4-18.1-8.4C122,23.8,121.6,25,120.2,25.8z M82.7,40c0.9-0.5,1.7-1,2.6-1.4l0.9-3
		c-0.3,0.2-0.6,0.4-0.9,0.6c-0.9,0.7-1.9,1.4-2.9,2.2c-1.9,1.5-3.5,2.8-4.6,4c-0.1,0.1-0.2,0.2-0.3,0.3l0.2,0.2
		C79.4,41.9,81.1,40.9,82.7,40z M114.4,14.2c0.1,0.8-0.1,1.6-0.5,2.3c12.1,2.4,23.3,7.4,33,14.4l2.6-0.2l-2,0.6
		c19.9,14.6,33.3,37.6,34.7,63.7l8.6,2.6c-1.1-44.8-34-81.9-77-89.6l-2.9,1.7c-0.6,0.4-1.2,0.7-1.7,1c1.3,0.1,2.3,0.4,2.9,0.7
		C113.9,12.1,114.3,13.4,114.4,14.2z M110.4,158.4l-6.8,21.9c19.3-1.5,36.7-9.8,49.9-22.3l-22.1-8.8
		C125.1,153.5,118,156.6,110.4,158.4z M178.1,106.1l-22.1,6.8c-1.7,7.7-4.9,14.9-9.3,21.2l8.4,22.3
		C168,143.2,176.5,125.6,178.1,106.1z M155.3,43.6c-3.9-4-8.2-7.6-12.8-10.7l-14.7,4.6l-1.1,0.3c-4,1.2-7.8,2.4-11.5,3.7
		c-0.6,0.2-1.3,0.4-1.9,0.7c7,1.9,13.4,5,19.1,9.1L155.3,43.6z M107.5,21.6c1.9-0.5,3.9-0.8,5.6-1c-1.7-0.3-3.3-0.6-5-0.8
		c-1.2,0.5-2.5,1-3.8,1.5l0.3,1.1C105.5,22.1,106.4,21.8,107.5,21.6z M104.3,115.3c2.9-6.1,5.7-12.1,8.6-18.1
		c2.9-6,5.8-11.9,8.9-17.9c0.1,1.5,0.3,2.8,0.4,4c0.1,1.2,0.3,2.3,0.4,3.4c0.1,1.1,0.3,2.3,0.4,3.4c0.1,1.2,0.3,2.5,0.5,4
		c0.6,4.9,1.2,10.1,1.6,15.5c0.5,5.4,0.7,10.6,0.7,15.5c0,0.9,0,1.8,0,2.6c0,0.8-0.2,1.7-0.5,2.6c-0.1,0.3-0.1,0.6,0.2,0.9
		c0.2,0.2,0.6,0.4,1,0.4c3.5,0.2,6.9,0.3,10.4,0.2c3.4-0.1,6.9-0.1,10.5-0.1l0.4-1.6c-0.7-0.3-1.5-0.6-2.2-0.8
		c-0.7-0.2-1.4-0.3-2-0.5c-1.1-0.2-2.1-0.5-3.1-0.9c-1-0.4-1.9-1.2-2.7-2.6c-0.4-0.7-0.8-1.8-1.2-3.3c-0.4-1.5-0.7-3.2-1.1-5.3
		c-0.3-2-0.6-4.2-0.9-6.5c-0.3-2.3-0.5-4.7-0.8-7.1c-0.3-2.4-0.5-4.8-0.7-7.2c-0.2-2.3-0.4-4.5-0.5-6.5c-0.1-1.5-0.3-2.9-0.4-4.1
		c-0.1-1.3-0.2-2.3-0.3-3c-0.5-4.5-1-9-1.5-13.5c-0.2-2-0.4-3.9-0.7-5.9l-2-0.1c0.3,0.6,0.4,1.2,0.4,1.7c0,1.3-0.6,2.6-1.8,3.3
		c-1.2,0.8-2.9,1.2-4.1,1.3c-0.1,0-0.1,0-0.2,0c-0.6,0-1.2-0.1-1.8-0.3c-0.1,0.2-0.3,0.4-0.4,0.6c-0.4,0.5-1,0.9-1.6,1.2
		c-0.2,0.5-0.5,1-0.7,1.6l-2,4.5c-1.4,3.1-2.9,6.2-4.3,9.2c-1.4,3-2.8,6-4.2,9.1c-1.6,3.6-3.3,7.2-4.9,10.6c-1.6,3.5-3.3,7-5.1,10.6
		c-0.7-1.4-1.6-3.1-2.6-5.2c-0.7-1.5-1.5-3.3-2.6-5.5c-0.2,0.4-0.4,0.8-0.6,1.2l-0.2,0.3c-0.9,1.8-1.1,2.2-0.9,2.6l0.6,0.9l-0.2,1.1
		c-0.5,2.3-2,4.6-4.3,6.5c0.7,0.5,1.3,1.1,1.8,1.9l0.3,0.5l0,0.6c0,0.1,0,0.3,0,0.4c2,3.3,4.1,6.5,6.4,9.6c0.3,0.3,0.7,0.4,1.1,0.4
		c0.4,0,0.7-0.2,0.9-0.5c1.3-2.7,2.6-5.3,3.8-7.9C101.8,120.5,103.1,117.9,104.3,115.3z M26.8,146.8c-0.9,1-2.2,1.6-3.7,1.6
		c-0.1,0-0.3,0-0.4,0c0.3,0.9,0.6,1.9,0.9,2.8l2.8,8.9c16.7,19.6,41.3,32.2,68.8,32.8l-2.6-8.5C65.2,183,41.2,168.4,26.8,146.8z
		 M102.3,184.6l-2.6,8.5c49.7-1.1,89.9-41.3,91.1-90.9l-8.6,2.6C179.8,147.6,145.3,182.2,102.3,184.6z M156.7,90.4
		c0.4,3,0.7,6.1,0.7,9.2h28.2L156.7,90.4z M97.5,159.7h-0.4v26.1l8.6-26.6C102.9,159.6,100.2,159.7,97.5,159.7z M178.1,93.7
		c-1.5-18.9-9.4-35.9-21.6-48.9l-9.3,21.7c4.1,6.1,7.1,12.9,8.8,20.5L178.1,93.7z M91.2,180.3l-6.8-21.9c-7.5-1.7-14.5-4.8-20.7-9
		L42,158.5C55,170.8,72.2,178.8,91.2,180.3z M38.1,148.1c-0.4-0.5-0.9-1-1.3-1.5c-0.9-1-2-2.4-2.4-2.7l-0.9-0.6l-0.1-0.5
		c-0.3-0.3-1-0.7-2-1.3c-1.6-0.9-2.9-1.3-3.5-1.3c0,0,0,0,0,0l-0.5,0.1c3.5,6.1,7.8,11.7,12.7,16.6l1.7-4.6
		C41.2,151.6,40,150.4,38.1,148.1z M152.5,47.1l-16.7,5.9c1.2,1.4,2.4,2.7,3.4,4.2L152.5,47.1z M127.9,54.4
		c-0.5-0.1-0.9,0.1-1.3,0.4c-0.5,0.7-0.9,1.4-1.3,2.1c0.3,0.2,0.6,0.3,0.9,0.5l3,1.5c-0.1-1.2-0.3-2.4-0.4-3.6
		C128.7,54.8,128.4,54.5,127.9,54.4z"/>
	<g>
		<path class="st1" d="M124.3,63c-1.9-1.1-4.1-1.1-5.2-2.3c-0.8-0.8-1.6-1.9-1.6-2.8c0.3-1.1,1.6-1.6,3.8-0.1c0.4,1-0.7,1-0.9,1.5
			c2.3,1.8,3.6,0.5,4.7,0.5c-3.1-1.5-4.7-3.2-6.3-4.6c-1.5-1.4-3-2.5-5.7-2.4c0-0.6,0-1.2,0-1.8c1.5,0,3.3,0.1,4.8,0
			c1.5-0.1,2.8-0.3,3.5-1.1c-1.5-2.3-2.7-2.4-3.8-2.3c-1.2,0-2.3,0.2-4-1.6c-0.8,0.6-1.9,0.6-2.8,0.7c-0.9,0.1-1.7,0.4-2,1.5
			l0.8,0.5c-0.8-0.1-1.7,0-2.5,0.1c-1,0.1-2,0.1-3-0.2c-1-0.4-1.9-1.2-2.7-2.8c-0.3-0.4-0.7-0.7-1.1-1c0.7-0.4,1.4-0.7,2.1-1.1
			c3.9-1.9,8-3.5,12.1-4.9c4.2-1.4,8.4-2.7,12.7-4.1c-2.3,0.1-4.3,0.1-6.3,0.4c-2,0.2-4,0.6-6,1.6c-0.2-0.6-0.6-1.7-1.7-1.4
			c-3.4,0.8-6.8,2.3-9.7,3.7c-0.5,0.2-1,0.5-1.5,0.7c-0.1-1,0.2-1.8,0.7-2.4c0.6-0.9,1.4-5,1.8-6c1.4-3.1,9.6-6.3,14-7.7
			c6.1-1.8-15-0.4-19,4.5c-0.7,0.9,0,2.4,0.2,3.5c1.2,4.7-1.9,0.6-3,1.2c-1.6,0.8-1.4,2.1-1,4.6c0.1,0.7,0.3,3.1-0.5,3.3
			c-0.7,0.2-1,0.3-2,0.3c-1,0-2.7,1-4.3,1.9c0.7-1.1,2.5-1.9,3.5-2.5l-1-1.6c-2.2,1-4.7,2.2-7.1,3.6c-2.4,1.4-4.7,2.8-6.8,4.2
			L76,45.2c-0.6,0.5-1.2,1.1-1.8,1.6c-1.2-0.4-1.5-1.2-1.1-2.3c0.4-1.1,1.4-2.5,2.8-3.9c1.4-1.5,3.2-2.9,4.9-4.3
			c1.7-1.4,3.5-2.6,4.8-3.6l-1.4-2.1c-0.8,0.5-1.5,1-2.3,1.4l-0.7-1c3.4-2.2,6.6-4.1,10-5.8c2.4-1.3,6.2-2.4,7-2.6
			c-0.3-0.6-1.5-0.8-3.4-0.8c2.7-0.9,5.5-2,8.4-3.1c2.9-1.1,5.8-2.2,8.3-3.6c0.6-0.5,0.4-1.1-0.5-1.5c-0.9-0.4-2.4-0.7-4.5-0.2
			c-2.1,0.5-3.4,0.9-5.1,1.5c-1.7,0.6-3.7,1.5-5.7,2.3l-0.4-0.8c1.3-0.6,8.1-3,9.4-3.7c0.6-0.5-0.3-0.7-1.1-0.9
			c-0.8-0.2-1.7-0.4-1.1-0.9c1.6-0.7,3.2-1.4,7.1-3.7c-3.6,0.8-7.1,1.7-10.4,2.8c-2.4,0.8-2.8,0.9-6.1,2.2c-1.4-0.6-1.8-1.3,3.4-4.2
			c-3.3,0.1-6.3,0.3-8.9,0.5c1.4-0.7,2.8-1.4,4.2-2.1c-8.5,0.3-16.9,1.9-25,4.8l0.2,0.4l0.8,2.1l1.2,0.6l1.2,1.8l1.2,1.2L71,19.2
			l-0.8,1.3l0.3,0.3l1,0.6l1,0.7l0.5,1.6l-0.4,0.7L71.4,24l-0.6,0.2l-0.8-0.6l-1.5-0.1l-0.3-0.8l1.5-2.1l0.2-1.4L68.6,20l-1.4,0.4
			L66,20.7l-1.2,0.7l0-1.7L64.1,20l-1.5-0.5l-1.7,1.1L59,21.8l1.3-0.3l1.6-0.4l1.8,0.5l-0.4,1.2l0.4,0.9l0.9-0.4l0.3,1.1l0.9,0.1
			l0.8-0.4l0.4,1.6l-1.9,0.6l-1.9,0.3l-1.6,0.7l-0.3-1.8l-0.9,0.2l-1.2,0.1l-1.5,1.2l0.2,1.5l-2,0.1l-1.1,0.5l-0.5,0.7l-0.5,0.9
			l-1,0.9l-0.6-0.1l0.3,1.8l-1.6,1.5L47.6,37L47,39l0.5,3.1l-1,2.2l-0.7-1.6l-0.7-3.1l-0.7-0.2l-0.9-1.2L41.3,38l-1.2,0.5l-1,0.4
			l-1.6-0.8l-1.6,0l-1.6,1.1l-1.2,1.1L33,42.5l-0.6,3.2l1.3,3.1l1.7,0.7l1.3,0l0.7-1.2l1.1-1.3l2,0.2l-0.4,2.5l-0.9,2.5l-0.1,1
			l1,0.4l1.6-0.4l1.2,2.3l-0.8,3.1l0.2,1.7l1.2,1l1.6-0.7l1.3,1.1l0.9,0.4l1.3-1.3l1.7-1.2l1.9-0.7l-0.5,1.6l0,2.2l0.8-1.8l1.6-1
			l0.9,1.5l1.7,0.4l0.3,0.9l0.5-0.7l1.9-0.1l0.6,0.9l1.1-1.1L60,64l0.3,0.6l0.2,0.3l1.1,0.5l0.9,1.9l1.8,0.9l2.4,2.2l0.9,2.3
			l0.5,1.5l-0.1,0.1c0.7,0.7,1.2,1.4,1.6,2.2l0.1,0l1.6,0.9l1.6,1.7l1.6,0.4l1.8,1.6l1.8,1.4l1,2.5l-1.3,3.1l-2.7,2.8l-0.8,2.8
			l-0.9,2.9l-1,2l-1.3,2.2l-2.1,0.3l-1.3,0.3l-2.5,1.2l-0.6,3l-1.6,1.9l-1,0.3l-0.9,1.6l-2,2.2l-2.5,0.1l-0.5-3.2l-0.3,2.4l0.7,1.7
			l-0.2,1.2l-1.6,1.9l-2.9-0.3l-0.7,1.1l-0.5,0.9l-1.7-0.7l0.4,1.6l0.6,0.4l-1.3,1.3l-1.6,1.6l-0.7,1.2l1.3,0.5l-0.7,1.6l-2.2,1.5
			l-0.6,1.9l1.5,2.5l1.7,0.8l-2,0.3l-1.9,0.1l-1.7-1.1l1-0.9l-0.3-0.6l-0.9,1.1l-0.8-1.1l-0.7-1.8l-0.6-1.6l0.6-1.2l-0.7-1l0.9-1.7
			l-0.3-1.3l1-1.5l1.1-1.7l0-2l0.8-1.9l-0.3-1.5l0.8-1.2l0.8-1.8l1-1.9l0.1-2.4l0.7-1.1l0.8-1.3l0.6-3.3l1.1-4.6l0-2.1l-1-1.7
			l-1.3-1.4l-1.7-2.5l-0.8-3.4l-0.7-4l-1.4-2.5l1.2-2.2l-0.2-2.5L44,70l1.3-1.3l0.8-1.9l0-2.6l-0.5-1.8l-1-0.4l-0.7,1.2l-0.9-0.5
			l-1.2-1l-1.1-1.6l-0.7-1.8L39,56.3l-1.1-0.6l-1.4-0.7l-1.6-1.8L33.8,52l-1.2,0.7l-1.1-0.9L30,51.2l-1.4-1.8l-2.5-2.1l-0.5-2.2
			l-0.1-1.6L24.5,42c-4.4,5.6-8.1,11.6-11.2,17.9c-3.6,7.5-6.3,15.3-7.9,23.4c-1.6,8-2.2,16.3-1.7,24.4c0.5,8.1,2.1,16.2,5,23.8
			c1.4,3.8,3.1,7.5,5.2,10.9c2,3.5,4.4,6.7,7.1,9.7c-0.9-2.7-1.6-5.4-2.3-8.1c0.5,0.3,0.8,0.4,0.8,0.4c1.5,1.2,4.3,2.2,5.3,0.6
			c0.1-1.4-0.2-3.9,0-6c0.1-2.1,0.6-4,1.8-4.1c0.6-0.1,0.8,1.3,1,2.7c1.3-0.2,3.3,0.6,5.1,1.6c1.8,0.9,3.2,2.1,3.3,2.7
			c0.7,0.6,2.4,2.6,4.1,4.6c1.7,2,3.5,3.9,4.2,4.4c1.4,1.7,3.7-0.9,6-4.3c1.1-1.7,2.2-3.6,3.1-5.4c0.9-1.8,1.6-3.5,1.9-4.7
			c0.5-1.2,1.3-1.3,2.2-1.2c0.9,0.2,2,0.6,2.9,0.5c-0.4-0.8-0.3-1.5-0.2-2.2c1,0,1.8-0.5,2.6-1.1c1.7-1.5,2.8-4.1,2.9-5.4
			c2,0.2,2.4,1.2,2.8,2c0.4,0.8,0.8,1.6,2.6,1.3c1.6-0.2,3.1-0.4,4.1-0.9c-0.7-0.5-1.4-1-2.1-1.5c0.7-2.1,1.9-1.6,3.4-1.1
			c1.5,0.5,3.2,1.2,4.9-0.2c-0.2-0.5-0.3-0.8-0.9-1c-2-1.2-3-0.9-4.9-0.1c-0.3-1.9,2.2-2.5,4.8-2.9c2.6-0.4,5.2-0.5,5.2-1.4
			c-0.7-1.3-2.6-1.6-4.7-1.7c-2.1-0.1-4.3,0.2-5.5-0.2c3.2,0.1,6.1-1.1,8.3-2.7c2.2-1.6,3.7-3.7,4.1-5.6c-1.2-1.9-0.1-3.8,1-5.6
			c1-1.9,1.9-3.8,0.4-6.3c1.2-1.7,3.1-3.7,4.2-5.9c0,0,2.4-1.9,2.6-3.2c0.2-1.3,0.6-2.3,4.2-1.5L99.8,88c0.1-1,0.7-0.9,1.5-0.5
			c0.8,0.4,1.9,0.9,2.8,0.6c-0.2-1,1.4-1.6,2.3-2.3c0.9-0.7,1.2-1.4-1.6-2.9c0.5,0,0.7,0.3,1.1,0.3c-0.2-0.6-0.3-1.2-0.5-1.7
			c-1.4-0.6-3.1-0.7-4.5-1.8c-0.3-0.2-1.2-1-0.6-1.5c0.9-0.9,2.9,0.9,4.3,1c-0.2-1.8,0-3.5,0.8-5c0.8-1.5,2.2-2.7,4.3-3.3
			c2.4,1.1,3.8,0.9,4.6,0.2c0.8-0.7,1.2-1.8,1.4-2.5c2.7-0.1,2.3-1.9,2-3.8c-0.4-1.9-0.5-4.5,1.6-3.2c1.5,0.9,0.6,1.9,0.2,2.4
			c-0.4,0.6-0.9,1.4,0.7,2.1c0.4,0.2,1.3,0.4,1.7,0.4c0.9,0,2.1-0.4,2.7-0.8C125.6,65.1,126,64,124.3,63z"/>
	</g>
</g>
<g>
	<g>
		<path class="st1" d="M267.7,122.8c0-1.4-0.7-2.3-1.9-2.3h-3.7v-15.5h14.5c4.3,0,6.2,2.3,6.2,7.5v48.5c0,1.4,0.7,2.3,1.9,2.3h8
			c1.2,0,1.9-0.8,1.9-2.3v-4h13.6v14.2c0,5.3-1.9,7.5-6.2,7.5H274c-4.3,0-6.2-2.3-6.2-7.5V122.8z"/>
		<path class="st1" d="M315.1,163.4h1.6c1.4,0,1.8-0.5,2.3-2.3l16.6-56.1h15.8l16.6,56.1c0.5,1.8,0.9,2.3,2.3,2.3h1.6v15.5h-9.8
			c-4.3,0-6-1.5-7.1-6l-2.6-9.5h-17.7l-2.6,9.5c-1.2,4.4-2.9,6-7.1,6h-9.8V163.4z M349.1,148.4l-3.1-12.3
			c-1.2-4.6-2.5-12.2-2.5-12.2h-0.2c0,0-1.3,7.5-2.5,12.2l-3.1,12.3H349.1z"/>
		<path class="st1" d="M391.1,120.6h-4.9c-1.2,0-1.9,0.8-1.9,2.3v4h-13.2v-14.7c0-5.3,1.5-7.1,5.9-7.1h43.5c4.3,0,5.9,1.9,5.9,7.1
			v14.7h-13.2v-4c0-1.4-0.7-2.3-1.9-2.3h-4.9v58.3h-15.2V120.6z"/>
		<path class="st1" d="M434.4,163.4h6.4v-42.8h-6.4v-15.5h27.1v15.5h-6.4v42.8h6.4v15.5h-27.1V163.4z"/>
		<path class="st1" d="M470.8,163.4h3.7c1.2,0,1.9-0.8,1.9-2.3v-56.1H490l16.8,31.7c2.6,4.8,5.1,11,5.1,11h0.2c0,0-0.7-6.4-0.7-11
			v-24.2c0-5.3,1.9-7.5,6.2-7.5h14.5v15.5h-3.7c-1.2,0-1.9,0.8-1.9,2.3v56.1h-13.6l-16.9-31.6c-2.6-4.6-5.1-11-5.1-11h-0.2
			c0,0,0.7,6.4,0.7,11v24.1c0,5.3-1.9,7.5-6.2,7.5h-14.5V163.4z"/>
		<path class="st1" d="M539.7,163.4h1.6c1.4,0,1.8-0.5,2.3-2.3l16.6-56.1H576l16.6,56.1c0.5,1.8,0.9,2.3,2.3,2.3h1.6v15.5h-9.8
			c-4.3,0-6-1.5-7.1-6l-2.6-9.5h-17.7l-2.6,9.5c-1.2,4.4-2.9,6-7.1,6h-9.8V163.4z M573.7,148.4l-3.1-12.3
			c-1.2-4.6-2.5-12.2-2.5-12.2H568c0,0-1.3,7.5-2.5,12.2l-3.1,12.3H573.7z"/>
	</g>
	<g>
		<path class="st1" d="M262.8,79.5h0.9c1.3,0,2.1-0.2,2.6-1.6l16.7-45.1h5.5l16.7,45.1c0.5,1.4,1.2,1.6,2.6,1.6h0.9v4.5h-2.3
			c-3.6,0-4.7-0.7-6-4.2L296,67.8h-20.3l-4.5,12.1c-1.3,3.5-2.3,4.2-6,4.2h-2.4V79.5z M294.6,63.3L287.9,45c-0.9-2.4-2-6.6-2-6.6
			h-0.1c0,0-1.1,4.2-2,6.6l-6.7,18.3H294.6z"/>
		<path class="st1" d="M315,79.5h2.7c1,0,1.5-0.5,1.6-1.6l3.6-45.1h5.2l13.5,29.8c1.2,2.6,2.5,6,2.5,6h0.1c0,0,1.3-3.4,2.5-6
			l13.5-29.8h5.2l3.6,45.1c0.1,1.1,0.6,1.6,1.6,1.6h2.8v4.5h-5c-3.1,0-4.2-1.3-4.4-4.4l-2.4-31.1c-0.2-2.8-0.2-7.1-0.2-7.1h-0.1
			c0,0-1.4,4.5-2.6,7.1l-12.2,26h-4.6l-12.1-26c-1.2-2.5-2.7-7.3-2.7-7.3H327c0,0,0,4.5-0.2,7.3l-2.4,31.1c-0.2,3.1-1.3,4.4-4.4,4.4
			H315V79.5z"/>
		<path class="st1" d="M386.4,37.4h-4.7v-4.5h29.3c3.1,0,4.4,1.3,4.4,4.4v5.1h-4.8V39c0-1.1-0.6-1.6-1.6-1.6h-17.5V56h19.2v4.5
			h-19.2v17.4c0,1.1,0.6,1.6,1.6,1.6h18c1,0,1.6-0.5,1.6-1.6v-3.4h4.7v5.1c0,3.1-1.3,4.4-4.4,4.4h-22.1c-3.1,0-4.4-1.3-4.4-4.4V37.4
			z M402.9,20.7h5.5l-6.3,8.7h-4.3L402.9,20.7z"/>
		<path class="st1" d="M430.6,37.4h-4.7v-4.5h21.7c8.6,0,14.7,5.7,14.7,14.6c0,7.9-4.9,12.6-9.9,13.7v0.1c0,0,1,0.6,1.7,2l7.4,14.6
			c0.7,1.5,1.8,1.7,3.6,1.7h1v4.5h-2.3c-4.1,0-5.4-0.5-7.1-3.9l-7.4-14.6c-1.4-2.7-2.3-3.1-5.2-3.1h-8.6v21.5h-5.1V37.4z M447.1,58
			c6.1,0,9.9-4,9.9-10.4c0-6.3-3.8-10.2-9.8-10.2h-11.4V58H447.1z"/>
		<path class="st1" d="M473.8,79.5h4.8V37.4h-4.8v-4.5h14.6v4.5h-4.9v42.1h4.9v4.5h-14.6V79.5z"/>
		<path class="st1" d="M523.5,32c7.3,0,19.1,3.1,19.1,10.8v4.2h-4.8v-2.8c0-4.8-8.3-7.4-14.2-7.4c-11.4,0-20.1,8.9-20.1,21.3
			c0,12.2,8.7,22.1,20.3,22.1c10.6,0,16.7-7.2,16.7-7.2l2.9,3.7c0,0-7.1,8.3-19.7,8.3c-15,0-25.5-11.9-25.5-26.9
			C498.2,43.3,509.1,32,523.5,32z"/>
		<path class="st1" d="M550.5,79.5h0.9c1.3,0,2.1-0.2,2.6-1.6l16.7-45.1h5.5L593,77.9c0.5,1.4,1.2,1.6,2.6,1.6h0.9v4.5h-2.3
			c-3.6,0-4.7-0.7-6-4.2l-4.4-12.1h-20.3l-4.5,12.1c-1.3,3.5-2.3,4.2-6,4.2h-2.4V79.5z M582.3,63.3L575.5,45c-0.9-2.4-2-6.6-2-6.6
			h-0.1c0,0-1.1,4.2-2,6.6l-6.7,18.3H582.3z"/>
	</g>
	<g>
		<path class="st0" d="M234.8,177.9v-1.4c0-0.5-0.3-0.8-0.8-0.8l-23.4-1.9v-2.7l15.4-7c1.4-0.6,3.1-1.3,3.1-1.3v-0.1
			c0,0-1.8-0.7-3.1-1.3l-15.4-7v-2.7l23.4-1.8c0.6,0,0.8-0.3,0.8-0.8v-1.4h2.3v2.6c0,1.6-0.7,2.2-2.3,2.3l-16.1,1.2
			c-1.4,0.1-3.7,0.1-3.7,0.1v0.1c0,0,2.3,0.7,3.7,1.4l13.5,6.3v2.4l-13.5,6.3c-1.3,0.6-3.8,1.4-3.8,1.4v0.1c0,0,2.3,0,3.8,0.1
			l16.1,1.2c1.6,0.1,2.3,0.7,2.3,2.3v2.5H234.8z"/>
		<path class="st0" d="M234.8,143.2v-2.5h-21.9v2.5h-2.3v-7.6h2.3v2.5h21.9v-2.5h2.3v7.6H234.8z"/>
		<path class="st0" d="M231.9,129c0,0,3.2-2.7,3.2-6.9c0-2.9-1.9-5.2-4.7-5.2c-6.6,0-5.2,13.1-13.5,13.1c-3.7,0-6.8-3.2-6.8-8.1
			c0-2.6,1.1-7.2,4.6-7.2h1.9v2.5h-1.2c-1.6,0-2.8,2.2-2.8,4.6c0,3.4,2,5.4,4.3,5.4c6.2,0,4.6-13.1,13.4-13.1c4,0,7.3,3.1,7.3,8
			c0,5.4-3.8,8.4-3.8,8.4L231.9,129z"/>
		<path class="st0" d="M231.9,107.5c0,0,3.2-2.7,3.2-6.9c0-2.9-1.9-5.2-4.7-5.2c-6.6,0-5.2,13.1-13.5,13.1c-3.7,0-6.8-3.2-6.8-8.1
			c0-2.6,1.1-7.2,4.6-7.2h1.9v2.5h-1.2c-1.6,0-2.8,2.2-2.8,4.6c0,3.4,2,5.4,4.3,5.4c6.2,0,4.6-13.1,13.4-13.1c4,0,7.3,3.1,7.3,8
			c0,5.4-3.8,8.4-3.8,8.4L231.9,107.5z"/>
		<path class="st0" d="M204.2,79.1c0-2.5,2.7-3.1,2.7-4.8c0-1.2-1.6-1.5-2.6-1.5v-2c2.9,0,4.4,1.2,4.4,3.5c0,2.6-2.7,3.1-2.7,4.8
			c0,1.2,1.6,1.5,2.6,1.5v2C205.7,82.7,204.2,81.5,204.2,79.1z M234.8,88.7v-0.5c0-0.7-0.1-1.1-0.8-1.4l-23.4-8.7v-2.8l23.4-8.7
			c0.7-0.3,0.8-0.6,0.8-1.4v-0.5h2.3V66c0,1.9-0.4,2.5-2.2,3.1l-6.3,2.3V82l6.3,2.3c1.8,0.7,2.2,1.2,2.2,3.1v1.2H234.8z M226.4,72.2
			l-9.5,3.5c-1.2,0.5-3.4,1-3.4,1v0.1c0,0,2.2,0.6,3.4,1l9.5,3.5V72.2z"/>
		<path class="st0" d="M210.1,47.9c0-7.5,5.9-13.5,13.6-13.5c7.8,0,13.9,6,13.9,13.5c0,7.6-6.1,13.5-13.9,13.5
			C216.1,61.5,210.1,55.5,210.1,47.9z M235.1,47.9c0-5.9-5-10.8-11.4-10.8c-6.3,0-11.1,4.8-11.1,10.8c0,6,4.8,10.8,11.1,10.8
			C230.1,58.7,235.1,53.9,235.1,47.9z"/>
	</g>
	<rect x="262.2" y="92.1" class="st1" width="334.3" height="2.8"/>
	<rect x="247.7" y="32.9" class="st0" width="2.8" height="146"/>
</g>
</svg>
